<svg xmlns="http://www.w3.org/2000/svg" viewBox="0 0 1500 1500" width="1500" height="1500" preserveAspectRatio="xMidYMid meet">
  <defs>
    <clipPath id="circle">
      <circle cx="750" cy="750" r="750"/>
    </clipPath>
  </defs>
  <g clip-path="url(#circle)">
  
  <circle cx="750" cy="750" r="750" fill="#800020"/>

  
  <g fill="#e6dfd3" transform="translate(569 0)">
    <g transform="translate(5.95197 1080.961011)">
      <path d="M 290.25 -815.1875 C 328.039062 -815.1875 356.757812 -810.835938 376.40625 -802.140625 C 396.0625 -793.453125 413.445312 -783.816406 428.5625 -773.234375 C 437.632812 -767.941406 445.003906 -763.972656 450.671875 -761.328125 C 456.347656 -758.679688 461.832031 -757.359375 467.125 -757.359375 C 474.675781 -757.359375 480.148438 -761.515625 483.546875 -769.828125 C 486.953125 -778.148438 489.789062 -790.625 492.0625 -807.25 L 518.140625 -807.25 C 517.378906 -794.40625 516.429688 -779.097656 515.296875 -761.328125 C 514.171875 -743.566406 513.414062 -720.132812 513.03125 -691.03125 C 512.65625 -661.9375 512.46875 -623.578125 512.46875 -575.953125 L 486.390625 -575.953125 C 484.117188 -612.234375 476.179688 -647.003906 462.578125 -680.265625 C 448.972656 -713.523438 429.128906 -740.734375 403.046875 -761.890625 C 376.972656 -783.054688 342.773438 -793.640625 300.453125 -793.640625 C 260.390625 -793.640625 227.316406 -781.546875 201.234375 -757.359375 C 175.160156 -733.171875 162.125 -701.425781 162.125 -662.125 C 162.125 -628.113281 170.816406 -599.582031 188.203125 -576.53125 C 205.585938 -553.476562 228.828125 -532.691406 257.921875 -514.171875 C 287.023438 -495.648438 318.585938 -475.804688 352.609375 -454.640625 C 391.910156 -430.453125 426.867188 -406.453125 457.484375 -382.640625 C 488.097656 -358.835938 512.285156 -332.570312 530.046875 -303.84375 C 547.804688 -275.125 556.6875 -240.359375 556.6875 -199.546875 C 556.6875 -151.171875 545.722656 -111.109375 523.796875 -79.359375 C 501.878906 -47.617188 472.78125 -23.8125 436.5 -7.9375 C 400.21875 7.933594 360.160156 15.875 316.328125 15.875 C 276.265625 15.875 244.515625 11.335938 221.078125 2.265625 C 197.648438 -6.804688 177.625 -16.253906 161 -26.078125 C 144.363281 -36.660156 131.515625 -41.953125 122.453125 -41.953125 C 114.890625 -41.953125 109.40625 -37.789062 106 -29.46875 C 102.601562 -21.15625 99.769531 -8.683594 97.5 7.9375 L 71.421875 7.9375 C 72.941406 -7.933594 73.890625 -26.644531 74.265625 -48.1875 C 74.640625 -69.726562 75.015625 -97.882812 75.390625 -132.65625 C 75.773438 -167.425781 75.96875 -211.265625 75.96875 -264.171875 L 102.046875 -264.171875 C 105.066406 -218.816406 113.566406 -176.488281 127.546875 -137.1875 C 141.535156 -97.882812 163.078125 -66.328125 192.171875 -42.515625 C 221.273438 -18.703125 260.015625 -6.796875 308.390625 -6.796875 C 333.328125 -6.796875 356.945312 -11.898438 379.25 -22.109375 C 401.550781 -32.316406 419.878906 -48.566406 434.234375 -70.859375 C 448.597656 -93.160156 455.78125 -122.070312 455.78125 -157.59375 C 455.78125 -188.582031 448.410156 -215.601562 433.671875 -238.65625 C 418.929688 -261.707031 398.332031 -283.25 371.875 -303.28125 C 345.425781 -323.3125 314.4375 -343.910156 278.90625 -365.078125 C 243.382812 -386.992188 210.128906 -409.289062 179.140625 -431.96875 C 148.148438 -454.644531 123.394531 -480.910156 104.875 -510.765625 C 86.351562 -540.617188 77.09375 -576.710938 77.09375 -619.046875 C 77.09375 -663.640625 87.109375 -700.484375 107.140625 -729.578125 C 127.171875 -758.679688 153.4375 -780.222656 185.9375 -794.203125 C 218.4375 -808.191406 253.207031 -815.1875 290.25 -815.1875 Z"/>
    </g>
  </g>

  
  <g fill="#800020" transform="translate(75 244)">
    <g transform="translate(109.964144 794.989511)">
      <path d="M 378.707031 -55.113281 C 418.28125 -34.207031 452.941406 -17.429688 482.695312 -4.785156 C 511.910156 7.632812 539.210938 16.558594 564.597656 22 C 589.875 27.414062 615.136719 30.125 640.390625 30.125 C 662.699219 30.125 686.527344 27.589844 711.875 22.519531 C 736.371094 17.621094 752.695312 12.664062 760.847656 7.644531 C 767.300781 3.773438 772.78125 1.839844 777.292969 1.839844 C 782.914062 1.839844 787.597656 3.707031 791.339844 7.449219 C 795.082031 11.191406 796.953125 15.875 796.953125 21.496094 C 796.953125 30.753906 791.90625 38.683594 781.816406 45.289062 C 775.429688 49.46875 766.367188 53.480469 754.632812 57.320312 C 733.003906 64.398438 706.269531 70.265625 674.425781 74.929688 C 642.71875 79.566406 611.007812 81.886719 579.292969 81.886719 C 551.046875 81.886719 524.324219 79.328125 499.117188 74.207031 C 473.839844 69.074219 446.523438 60.046875 417.171875 47.132812 C 388.496094 34.515625 353.605469 17.171875 312.5 -4.90625 L 320.195312 -19.234375 L 325.441406 -3.839844 C 291.460938 7.746094 260.097656 16.0625 231.363281 21.109375 C 202.523438 26.175781 172.167969 28.710938 140.296875 28.710938 C 97.550781 28.710938 58.777344 24.605469 23.984375 16.394531 C -11.578125 8.003906 -40.007812 -3.5625 -61.304688 -18.308594 C -85.585938 -35.117188 -97.726562 -54.660156 -97.726562 -76.9375 C -97.726562 -104.003906 -82.285156 -125.257812 -51.398438 -140.703125 C -24.21875 -154.292969 10.261719 -161.089844 52.046875 -161.089844 C 85.605469 -161.089844 118.210938 -157.765625 149.859375 -151.125 C 181.382812 -144.507812 214.578125 -134.035156 249.441406 -119.699219 C 284.003906 -105.492188 322.320312 -86.53125 364.386719 -62.820312 L 356.402344 -48.652344 L 349.671875 -63.457031 C 381.535156 -77.941406 410.296875 -95.84375 435.953125 -117.167969 C 461.738281 -138.59375 488.007812 -167.265625 514.769531 -203.191406 C 541.96875 -239.707031 572.777344 -286.769531 607.191406 -344.375 L 621.15625 -336.035156 L 625.507812 -320.363281 C 597.691406 -312.636719 573.074219 -307.214844 551.652344 -304.097656 C 530.132812 -300.96875 508.796875 -299.40625 487.648438 -299.40625 C 438.414062 -299.40625 394.207031 -308.800781 355.023438 -327.59375 C 315.46875 -346.5625 284.316406 -372.503906 261.558594 -405.417969 C 238.515625 -438.75 226.992188 -476.71875 226.992188 -519.328125 C 226.992188 -562.601562 240.167969 -603.898438 266.515625 -643.222656 C 292.414062 -681.867188 328.308594 -714.640625 374.199219 -741.542969 C 403.355469 -758.09375 433.640625 -770.882812 465.050781 -779.914062 C 496.6875 -789.007812 528.359375 -793.558594 560.058594 -793.558594 C 598.667969 -793.558594 633.207031 -786.449219 663.671875 -772.230469 C 694.632812 -757.785156 718.867188 -737.84375 736.378906 -712.40625 C 754.132812 -686.625 763.007812 -656.960938 763.007812 -623.417969 C 763.007812 -591.097656 753.796875 -558.972656 735.375 -527.039062 C 717.101562 -495.363281 692.914062 -469.761719 662.816406 -450.242188 L 653.96875 -463.886719 L 663.46875 -450.6875 C 641.773438 -435.066406 625.40625 -427.257812 614.367188 -427.257812 C 608.25 -427.257812 603.121094 -428.738281 598.972656 -431.699219 C 593.113281 -435.886719 590.183594 -441.710938 590.183594 -449.179688 C 590.183594 -458.140625 593.933594 -464.5 601.4375 -468.25 C 603.84375 -469.457031 608.175781 -470.953125 614.425781 -472.738281 L 618.890625 -457.097656 L 613.570312 -472.46875 C 630.828125 -478.441406 647.433594 -489.40625 663.398438 -505.371094 C 679.828125 -521.800781 693.300781 -540.882812 703.816406 -562.617188 C 714.050781 -583.761719 719.164062 -603.652344 719.164062 -622.285156 C 719.164062 -658.542969 704.617188 -688.242188 675.523438 -711.386719 C 645.296875 -735.429688 606.054688 -747.449219 557.796875 -747.449219 C 521.433594 -747.449219 486.507812 -740.679688 453.011719 -727.140625 C 419.304688 -713.515625 389.203125 -694.882812 362.699219 -671.246094 C 336.34375 -647.738281 315.710938 -621.074219 300.800781 -591.253906 C 286.105469 -561.863281 278.757812 -531.097656 278.757812 -498.960938 C 278.757812 -470.253906 287.605469 -444.546875 305.304688 -421.839844 C 323.59375 -398.371094 348.824219 -379.644531 380.988281 -365.660156 C 413.617188 -351.472656 450.300781 -344.378906 491.039062 -344.378906 C 511.21875 -344.378906 531.589844 -346.183594 552.15625 -349.792969 C 573.074219 -353.460938 597.585938 -359.363281 625.683594 -367.5 L 630.207031 -351.875 L 616.222656 -360.183594 C 647.429688 -412.703125 678.285156 -459.546875 708.78125 -500.722656 C 739.363281 -542.007812 772.621094 -581.378906 808.550781 -618.835938 C 857.386719 -671.492188 901.820312 -712.636719 941.855469 -742.277344 C 983.953125 -773.449219 1017.351562 -789.03125 1042.046875 -789.03125 C 1055.460938 -789.03125 1066.433594 -783.851562 1074.96875 -773.488281 C 1082.722656 -764.074219 1086.597656 -752.898438 1086.597656 -739.957031 C 1086.597656 -715.746094 1074.09375 -683.472656 1049.082031 -643.132812 C 1025.121094 -604.488281 993.910156 -564.777344 955.445312 -524.003906 C 920.734375 -486.980469 882.726562 -454.183594 841.417969 -425.617188 C 800.234375 -397.136719 754.667969 -371.753906 704.71875 -349.46875 L 698.09375 -364.320312 L 712.515625 -356.804688 C 684.152344 -302.371094 654.953125 -255.910156 624.929688 -217.414062 C 594.648438 -178.59375 559.90625 -144.242188 520.703125 -114.351562 C 481.871094 -84.746094 434.507812 -55.398438 378.621094 -26.304688 L 371.109375 -40.730469 Z M 363.511719 -26.351562 L 336.089844 -40.839844 L 363.597656 -55.160156 C 417.835938 -83.390625 463.628906 -111.746094 500.980469 -140.21875 C 537.957031 -168.410156 570.722656 -200.8125 599.277344 -237.421875 C 628.085938 -274.355469 656.21875 -319.160156 683.667969 -371.835938 L 686.289062 -376.863281 L 691.464844 -379.175781 C 739.574219 -400.636719 783.390625 -425.039062 822.914062 -452.371094 C 862.320312 -479.621094 898.605469 -510.941406 931.78125 -546.328125 C 968.746094 -585.507812 998.628906 -623.492188 1021.433594 -660.273438 C 1043.191406 -695.363281 1054.070312 -721.925781 1054.070312 -739.957031 C 1054.070312 -745.117188 1052.664062 -749.402344 1049.859375 -752.808594 C 1047.832031 -755.273438 1045.226562 -756.503906 1042.046875 -756.503906 C 1024.503906 -756.503906 997.558594 -743.046875 961.210938 -716.136719 C 922.800781 -687.695312 879.738281 -647.757812 832.023438 -596.320312 C 797.050781 -559.855469 764.683594 -521.535156 734.921875 -481.359375 C 705.078125 -441.070312 674.835938 -395.140625 644.1875 -343.566406 L 640.90625 -338.039062 L 634.730469 -336.25 C 605.503906 -327.792969 579.851562 -321.625 557.777344 -317.75 C 535.351562 -313.816406 513.105469 -311.851562 491.039062 -311.851562 C 445.792969 -311.851562 404.785156 -319.84375 368.019531 -335.828125 C 330.789062 -352.015625 301.332031 -374.019531 279.644531 -401.84375 C 257.367188 -430.425781 246.226562 -462.800781 246.226562 -498.960938 C 246.226562 -536.21875 254.71875 -571.832031 271.703125 -605.800781 C 288.472656 -639.339844 311.589844 -669.246094 341.046875 -695.523438 C 370.363281 -721.667969 403.621094 -742.261719 440.820312 -757.296875 C 478.226562 -772.417969 517.21875 -779.980469 557.796875 -779.980469 C 613.628906 -779.980469 659.621094 -765.601562 695.773438 -736.84375 C 733.054688 -707.1875 751.695312 -669.003906 751.695312 -622.285156 C 751.695312 -598.679688 745.496094 -574.066406 733.097656 -548.449219 C 720.988281 -523.417969 705.421875 -501.390625 686.398438 -482.367188 C 666.910156 -462.878906 646.179688 -449.332031 624.210938 -441.726562 L 623.789062 -441.582031 L 623.359375 -441.457031 C 619.050781 -440.226562 616.589844 -439.460938 615.984375 -439.15625 C 618.460938 -440.394531 620.320312 -442.253906 621.558594 -444.734375 C 622.328125 -446.269531 622.710938 -447.75 622.710938 -449.179688 C 622.710938 -452.871094 621.101562 -455.871094 617.878906 -458.171875 C 616.371094 -459.246094 615.203125 -459.785156 614.367188 -459.785156 C 615.511719 -459.785156 618.21875 -460.882812 622.484375 -463.078125 C 628.367188 -466.101562 635.691406 -470.769531 644.464844 -477.085938 L 644.785156 -477.316406 L 645.117188 -477.53125 C 670.835938 -494.214844 691.53125 -516.136719 707.199219 -543.292969 C 722.71875 -570.195312 730.480469 -596.90625 730.480469 -623.417969 C 730.480469 -650.21875 723.515625 -673.730469 709.585938 -693.960938 C 695.421875 -714.535156 675.53125 -730.800781 649.917969 -742.753906 C 623.8125 -754.9375 593.859375 -761.027344 560.058594 -761.027344 C 531.414062 -761.027344 502.742188 -756.902344 474.039062 -748.648438 C 445.101562 -740.332031 417.308594 -728.605469 390.648438 -713.476562 C 349.042969 -689.089844 316.671875 -659.632812 293.539062 -625.113281 C 270.863281 -591.269531 259.523438 -556.007812 259.523438 -519.328125 C 259.523438 -483.488281 269.121094 -451.683594 288.316406 -423.917969 C 307.800781 -395.738281 334.726562 -373.40625 369.089844 -356.921875 C 403.828125 -340.265625 443.347656 -331.933594 487.648438 -331.933594 C 507.226562 -331.933594 527 -333.386719 546.96875 -336.289062 C 567.03125 -339.207031 590.308594 -344.347656 616.800781 -351.707031 L 655.960938 -362.585938 L 635.117188 -327.695312 C 600.136719 -269.140625 568.71875 -221.160156 540.855469 -183.757812 C 512.550781 -145.761719 484.515625 -115.226562 456.746094 -92.148438 C 428.847656 -68.964844 397.644531 -49.53125 363.132812 -33.84375 L 355.609375 -30.425781 L 348.414062 -34.480469 C 307.511719 -57.535156 270.398438 -75.914062 237.074219 -89.613281 C 204.050781 -103.191406 172.753906 -113.082031 143.179688 -119.289062 C 113.734375 -125.46875 83.355469 -128.558594 52.046875 -128.558594 C 15.382812 -128.558594 -14.25 -122.90625 -36.851562 -111.605469 C -55.75 -102.15625 -65.199219 -90.601562 -65.199219 -76.9375 C -65.199219 -66.023438 -57.726562 -55.394531 -42.789062 -45.054688 C -24.863281 -32.644531 -0.113281 -22.714844 31.457031 -15.265625 C 63.792969 -7.632812 100.074219 -3.820312 140.296875 -3.820312 C 170.277344 -3.820312 198.757812 -6.1875 225.734375 -10.929688 C 252.816406 -15.683594 282.554688 -23.585938 314.945312 -34.628906 L 321.652344 -36.914062 L 327.890625 -33.5625 C 368.246094 -11.890625 402.375 5.082031 430.269531 17.359375 C 457.492188 29.335938 482.597656 37.660156 505.59375 42.328125 C 528.660156 47.015625 553.226562 49.359375 579.292969 49.359375 C 609.429688 49.359375 639.570312 47.152344 669.714844 42.742188 C 699.722656 38.351562 724.652344 32.90625 744.515625 26.40625 C 753.519531 23.457031 760.015625 20.679688 764 18.070312 C 765.042969 17.390625 765.648438 16.9375 765.816406 16.714844 C 764.886719 17.933594 764.421875 19.527344 764.421875 21.496094 C 764.421875 24.855469 765.726562 27.84375 768.335938 30.453125 C 770.949219 33.0625 773.933594 34.367188 777.292969 34.367188 C 778.765625 34.367188 779.863281 34.210938 780.589844 33.902344 C 779.945312 34.175781 779.046875 34.660156 777.898438 35.347656 C 766.4375 42.402344 746.558594 48.757812 718.253906 54.417969 C 690.800781 59.90625 664.847656 62.652344 640.390625 62.652344 C 612.839844 62.652344 585.304688 59.703125 557.78125 53.808594 C 530.367188 47.933594 501.097656 38.378906 469.96875 25.152344 C 439.378906 12.152344 403.890625 -5.015625 363.511719 -26.351562 Z M 296.363281 -14.121094 L 252.238281 -39.011719 C 167.933594 -87.394531 91.394531 -111.585938 22.628906 -111.585938 C 0.535156 -111.585938 -18.148438 -107.363281 -33.425781 -98.910156 C -45.554688 -92.199219 -51.621094 -84.5 -51.621094 -75.804688 C -51.621094 -69.019531 -44.757812 -61.367188 -31.03125 -52.859375 C -13.761719 -42.152344 9.609375 -33.601562 39.085938 -27.210938 C 69.253906 -20.667969 101.859375 -17.394531 136.902344 -17.394531 C 164.667969 -17.394531 190.554688 -19.398438 214.5625 -23.398438 C 238.796875 -27.4375 267.195312 -34.265625 299.746094 -43.882812 L 304.355469 -28.285156 Z M 312.347656 -42.453125 L 345.8125 -23.574219 L 308.964844 -12.6875 C 275.140625 -2.695312 245.453125 4.429688 219.910156 8.6875 C 194.132812 12.984375 166.464844 15.132812 136.902344 15.132812 C 99.535156 15.132812 64.632812 11.617188 32.191406 4.582031 C -0.9375 -2.605469 -27.726562 -12.535156 -48.171875 -25.210938 C -72.15625 -40.082031 -84.152344 -56.949219 -84.152344 -75.804688 C -84.152344 -97.285156 -72.492188 -114.476562 -49.171875 -127.375 C -28.996094 -138.535156 -5.0625 -144.117188 22.628906 -144.117188 C 97.175781 -144.117188 179.039062 -118.527344 268.21875 -67.34375 Z M 699.871094 -395.839844 C 703.953125 -397.878906 707.324219 -399.234375 709.988281 -399.898438 L 709.769531 -399.941406 C 710.71875 -400.414062 711.957031 -401.109375 713.484375 -402.027344 L 714.175781 -402.441406 L 714.902344 -402.785156 C 755.3125 -421.890625 795.226562 -446.730469 834.644531 -477.304688 C 874.15625 -507.953125 910.910156 -542.863281 944.90625 -582.035156 C 976.707031 -618.273438 1001.023438 -650.660156 1017.855469 -679.199219 C 1033.699219 -706.070312 1041.621094 -726.699219 1041.621094 -741.085938 C 1041.621094 -742.628906 1041.324219 -743.699219 1040.730469 -744.292969 C 1040.132812 -744.890625 1039.441406 -745.1875 1038.652344 -745.1875 C 1029.714844 -745.1875 1016.386719 -739.609375 998.667969 -728.453125 C 979.21875 -716.207031 958.007812 -699.144531 935.03125 -677.261719 C 911.761719 -655.105469 888.652344 -629.957031 865.703125 -601.824219 C 848.65625 -580.328125 832.875 -559.160156 818.359375 -538.316406 C 803.910156 -517.566406 789.253906 -494.375 774.394531 -468.742188 C 759.390625 -442.859375 741.742188 -411.132812 721.457031 -373.5625 L 707.144531 -381.292969 Z M 714.417969 -366.746094 L 668.371094 -343.722656 L 692.832031 -389.019531 C 713.277344 -426.878906 731.082031 -458.890625 746.25 -485.054688 C 761.5625 -511.46875 776.699219 -535.417969 791.664062 -556.90625 C 806.566406 -578.304688 822.84375 -600.128906 840.496094 -622.386719 C 864.308594 -651.574219 888.34375 -677.71875 912.597656 -700.820312 C 937.140625 -724.195312 960.054688 -742.582031 981.335938 -755.980469 C 1004.347656 -770.472656 1023.457031 -777.71875 1038.652344 -777.71875 C 1048.425781 -777.71875 1056.785156 -774.242188 1063.730469 -767.296875 C 1070.679688 -760.347656 1074.152344 -751.613281 1074.152344 -741.085938 C 1074.152344 -720.777344 1064.726562 -694.640625 1045.875 -662.675781 C 1028.007812 -632.382812 1002.542969 -598.394531 969.472656 -560.710938 C 934.078125 -519.929688 895.78125 -483.558594 854.582031 -451.601562 C 813.289062 -419.570312 771.363281 -393.496094 728.804688 -373.375 L 721.851562 -388.082031 L 730.222656 -374.132812 C 725.066406 -371.039062 720.953125 -369.109375 717.878906 -368.339844 C 717.523438 -368.253906 716.371094 -367.71875 714.417969 -366.746094 Z"/>
    </g>
  </g>

  
  <g fill="#e6dfd3" transform="translate(75 244)">
    <g transform="translate(109.964144 794.989511)">
      <path d="M 371.109375 -40.734375 C 411.085938 -19.609375 446.160156 -2.632812 476.328125 10.1875 C 506.503906 23.007812 534.789062 32.25 561.1875 37.90625 C 587.59375 43.5625 613.992188 46.390625 640.390625 46.390625 C 663.773438 46.390625 688.664062 43.75 715.0625 38.46875 C 741.46875 33.1875 759.570312 27.53125 769.375 21.5 C 773.144531 19.238281 775.785156 18.109375 777.296875 18.109375 C 779.554688 18.109375 780.6875 19.238281 780.6875 21.5 C 780.6875 28.289062 770.316406 35.078125 749.578125 41.859375 C 728.835938 48.648438 703.003906 54.304688 672.078125 58.828125 C 641.148438 63.359375 610.222656 65.625 579.296875 65.625 C 552.140625 65.625 526.492188 63.171875 502.359375 58.265625 C 478.222656 53.367188 452.007812 44.695312 423.71875 32.25 C 395.4375 19.800781 360.929688 2.636719 320.203125 -19.234375 C 287.003906 -7.921875 256.453125 0.1875 228.546875 5.09375 C 200.640625 10 171.222656 12.453125 140.296875 12.453125 C 98.804688 12.453125 61.28125 8.488281 27.71875 0.5625 C -5.839844 -7.351562 -32.429688 -18.097656 -52.046875 -31.671875 C -71.660156 -45.253906 -81.46875 -60.34375 -81.46875 -76.9375 C -81.46875 -97.300781 -69.019531 -113.707031 -44.125 -126.15625 C -19.226562 -138.601562 12.828125 -144.828125 52.046875 -144.828125 C 84.484375 -144.828125 115.972656 -141.617188 146.515625 -135.203125 C 177.066406 -128.796875 209.3125 -118.613281 243.25 -104.65625 C 277.195312 -90.695312 314.914062 -72.03125 356.40625 -48.65625 C 389.59375 -63.738281 419.570312 -82.40625 446.34375 -104.65625 C 473.125 -126.90625 500.28125 -156.507812 527.8125 -193.46875 C 555.34375 -230.4375 586.457031 -277.957031 621.15625 -336.03125 C 594 -328.488281 570.050781 -323.207031 549.3125 -320.1875 C 528.570312 -317.175781 508.019531 -315.671875 487.65625 -315.671875 C 440.882812 -315.671875 399.019531 -324.53125 362.0625 -342.25 C 325.101562 -359.976562 296.0625 -384.117188 274.9375 -414.671875 C 253.820312 -445.222656 243.265625 -480.109375 243.265625 -519.328125 C 243.265625 -559.304688 255.519531 -597.585938 280.03125 -634.171875 C 304.539062 -670.753906 338.671875 -701.867188 382.421875 -727.515625 C 410.335938 -743.359375 439.378906 -755.613281 469.546875 -764.28125 C 499.710938 -772.957031 529.882812 -777.296875 560.0625 -777.296875 C 596.269531 -777.296875 628.515625 -770.695312 656.796875 -757.5 C 685.085938 -744.300781 707.148438 -726.195312 722.984375 -703.1875 C 738.828125 -680.175781 746.75 -653.585938 746.75 -623.421875 C 746.75 -594.003906 738.257812 -564.585938 721.28125 -535.171875 C 704.3125 -505.753906 681.875 -481.992188 653.96875 -463.890625 C 635.113281 -450.316406 621.914062 -443.53125 614.375 -443.53125 C 609.09375 -443.53125 606.453125 -445.414062 606.453125 -449.1875 C 606.453125 -451.445312 607.203125 -452.953125 608.703125 -453.703125 C 610.210938 -454.460938 613.609375 -455.59375 618.890625 -457.09375 C 638.503906 -463.882812 657.171875 -476.144531 674.890625 -493.875 C 692.617188 -511.601562 707.140625 -532.15625 718.453125 -555.53125 C 729.773438 -578.914062 735.4375 -601.171875 735.4375 -622.296875 C 735.4375 -663.773438 718.84375 -697.710938 685.65625 -724.109375 C 652.46875 -750.515625 609.847656 -763.71875 557.796875 -763.71875 C 519.328125 -763.71875 482.363281 -756.550781 446.90625 -742.21875 C 411.457031 -727.882812 379.78125 -708.269531 351.875 -683.375 C 323.96875 -658.488281 302.09375 -630.207031 286.25 -598.53125 C 270.414062 -566.851562 262.5 -533.664062 262.5 -498.96875 C 262.5 -466.53125 272.488281 -437.488281 292.46875 -411.84375 C 312.457031 -386.195312 339.800781 -365.828125 374.5 -350.734375 C 409.195312 -335.648438 448.046875 -328.109375 491.046875 -328.109375 C 512.160156 -328.109375 533.46875 -329.992188 554.96875 -333.765625 C 576.46875 -337.546875 601.546875 -343.582031 630.203125 -351.875 C 661.128906 -403.925781 691.675781 -450.316406 721.84375 -491.046875 C 752.019531 -531.773438 784.835938 -570.617188 820.296875 -607.578125 C 868.566406 -659.628906 912.3125 -700.171875 951.53125 -729.203125 C 990.757812 -758.242188 1020.929688 -772.765625 1042.046875 -772.765625 C 1050.347656 -772.765625 1057.140625 -769.554688 1062.421875 -763.140625 C 1067.703125 -756.734375 1070.34375 -749.003906 1070.34375 -739.953125 C 1070.34375 -718.835938 1058.648438 -689.421875 1035.265625 -651.703125 C 1011.878906 -613.992188 981.332031 -575.148438 943.625 -535.171875 C 909.675781 -498.960938 872.523438 -466.90625 832.171875 -439 C 791.816406 -411.09375 747.125 -386.203125 698.09375 -364.328125 C 670.1875 -310.765625 641.523438 -265.125 612.109375 -227.40625 C 582.691406 -189.695312 548.9375 -156.320312 510.84375 -127.28125 C 472.75 -98.238281 426.171875 -69.390625 371.109375 -40.734375 Z M 304.359375 -28.28125 L 260.234375 -53.171875 C 173.484375 -102.960938 94.28125 -127.859375 22.625 -127.859375 C -2.257812 -127.859375 -23.566406 -122.953125 -41.296875 -113.140625 C -59.023438 -103.335938 -67.890625 -90.894531 -67.890625 -75.8125 C -67.890625 -62.988281 -58.457031 -50.726562 -39.59375 -39.03125 C -20.738281 -27.34375 4.335938 -18.101562 35.640625 -11.3125 C 66.941406 -4.519531 100.695312 -1.125 136.90625 -1.125 C 165.570312 -1.125 192.347656 -3.195312 217.234375 -7.34375 C 242.128906 -11.5 271.171875 -18.476562 304.359375 -28.28125 Z M 707.15625 -381.296875 C 710.164062 -382.804688 712.425781 -383.75 713.9375 -384.125 C 715.445312 -384.5 718.085938 -385.816406 721.859375 -388.078125 C 763.347656 -407.691406 804.269531 -433.148438 844.625 -464.453125 C 884.976562 -495.753906 922.503906 -531.394531 957.203125 -571.375 C 989.628906 -608.332031 1014.515625 -641.519531 1031.859375 -670.9375 C 1049.210938 -700.351562 1057.890625 -723.738281 1057.890625 -741.09375 C 1057.890625 -747.125 1056.003906 -752.023438 1052.234375 -755.796875 C 1048.460938 -759.566406 1043.9375 -761.453125 1038.65625 -761.453125 C 1026.59375 -761.453125 1010.375 -755.039062 990 -742.21875 C 969.632812 -729.394531 947.570312 -711.671875 923.8125 -689.046875 C 900.050781 -666.421875 876.484375 -640.773438 853.109375 -612.109375 C 835.753906 -590.234375 819.722656 -568.734375 805.015625 -547.609375 C 790.304688 -526.492188 775.410156 -502.921875 760.328125 -476.890625 C 745.242188 -450.867188 727.519531 -419.003906 707.15625 -381.296875 Z"/>
    </g>
  </g>
  </g>
</svg>
